HIERARCHY
ROOT Hips
{
	OFFSET 0.00000 0.00000 0.00000
	CHANNELS 6 Xposition Yposition Zposition Zrotation Yrotation Xrotation 
	JOINT LHipJoint
	{
		OFFSET 0 0 0
		CHANNELS 3 Zrotation Yrotation Xrotation
		JOINT LeftUpLeg
		{
			OFFSET 2.36090 -1.39315 1.24752
			CHANNELS 3 Zrotation Yrotation Xrotation
			JOINT LeftLeg
			{
				OFFSET 2.06810 -5.68207 0.00000
				CHANNELS 3 Zrotation Yrotation Xrotation
				JOINT LeftFoot
				{
					OFFSET 2.46631 -6.77613 0.00000
					CHANNELS 3 Zrotation Yrotation Xrotation
					JOINT LeftToeBase
					{
						OFFSET 0.26031 -0.71520 1.99545
						CHANNELS 3 Zrotation Yrotation Xrotation
						End Site
						{
							OFFSET 0.00000 -0.00000 1.05957
						}
					}
				}
			}
		}
	}
	JOINT RHipJoint
	{
		OFFSET 0 0 0
		CHANNELS 3 Zrotation Yrotation Xrotation
		JOINT RightUpLeg
		{
			OFFSET -2.25243 -1.39315 1.24752
			CHANNELS 3 Zrotation Yrotation Xrotation
			JOINT RightLeg
			{
				OFFSET -2.17343 -5.97145 0.00000
				CHANNELS 3 Zrotation Yrotation Xrotation
				JOINT RightFoot
				{
					OFFSET -2.52372 -6.93386 0.00000
					CHANNELS 3 Zrotation Yrotation Xrotation
					JOINT RightToeBase
					{
						OFFSET -0.22538 -0.61923 2.11447
						CHANNELS 3 Zrotation Yrotation Xrotation
						End Site
						{
							OFFSET -0.00000 -0.00000 1.10506
						}
					}
				}
			}
		}
	}
	JOINT LowerBack
	{
		OFFSET 0 0 0
		CHANNELS 3 Zrotation Yrotation Xrotation
		JOINT Spine
		{
			OFFSET 0.01594 2.13103 0.08007
			CHANNELS 3 Zrotation Yrotation Xrotation
			JOINT Spine1
			{
				OFFSET 0.01393 2.09723 0.18338
				CHANNELS 3 Zrotation Yrotation Xrotation
				JOINT Neck
				{
					OFFSET 0 0 0
					CHANNELS 3 Zrotation Yrotation Xrotation
					JOINT Neck1
					{
						OFFSET 0.05351 1.38915 0.32494
						CHANNELS 3 Zrotation Yrotation Xrotation
						JOINT Head
						{
							OFFSET 0.00711 1.45992 -0.21666
							CHANNELS 3 Zrotation Yrotation Xrotation
							End Site
							{
								OFFSET -0.00433 1.47702 -0.11056
							}
						}
					}
				}
				JOINT LeftShoulder
				{
					OFFSET 0 0 0
					CHANNELS 3 Zrotation Yrotation Xrotation
					JOINT LeftArm
					{
						OFFSET 2.87198 0.92249 0.11132
						CHANNELS 3 Zrotation Yrotation Xrotation
						JOINT LeftForeArm
						{
							OFFSET 5.52731 -0.00000 0.00000
							CHANNELS 3 Zrotation Yrotation Xrotation
							JOINT LeftHand
							{
								OFFSET 3.11059 -0.00000 0.00000
								CHANNELS 3 Zrotation Yrotation Xrotation
								JOINT LeftFingerBase
								{
									OFFSET 0 0 0
									CHANNELS 3 Zrotation Yrotation Xrotation
									JOINT LeftHandIndex1
									{
										OFFSET 0.41963 -0.00000 0.00000
										CHANNELS 3 Zrotation Yrotation Xrotation
										End Site
										{
											OFFSET 0.33831 -0.00000 0.00000
										}
									}
								}
								JOINT LThumb
								{
									OFFSET 0 0 0
									CHANNELS 3 Zrotation Yrotation Xrotation
									End Site
									{
										OFFSET 0.34348 -0.00000 0.34348
									}
								}
							}
						}
					}
				}
				JOINT RightShoulder
				{
					OFFSET 0 0 0
					CHANNELS 3 Zrotation Yrotation Xrotation
					JOINT RightArm
					{
						OFFSET -2.94710 0.68072 0.32187
						CHANNELS 3 Zrotation Yrotation Xrotation
						JOINT RightForeArm
						{
							OFFSET -5.25396 -0.00000 -0.00000
							CHANNELS 3 Zrotation Yrotation Xrotation
							JOINT RightHand
							{
								OFFSET -3.10567 -0.00000 0.00000
								CHANNELS 3 Zrotation Yrotation Xrotation
								JOINT RightFingerBase
								{
									OFFSET 0 0 0
									CHANNELS 3 Zrotation Yrotation Xrotation
									JOINT RightHandIndex1
									{
										OFFSET -0.49868 -0.00000 0.00000
										CHANNELS 3 Zrotation Yrotation Xrotation
										End Site
										{
											OFFSET -0.40204 -0.00000 0.00000
										}
									}
								}
								JOINT RThumb
								{
									OFFSET 0 0 0
									CHANNELS 3 Zrotation Yrotation Xrotation
									End Site
									{
										OFFSET -0.40818 -0.00000 0.40818
									}
								}
							}
						}
					}
				}
			}
		}
	}
}
MOTION
Frames: 15
Frame Time: .0083333
8.1762 14.7570 22.0059 -382.1960 -74.9404 399.5470 0.0000 0.0000 0.0000 -12.9233 -9.0300 -54.2297 13.2899 18.8843 70.0234 0.7552 -0.2514 -16.3415 2.0939 -9.0591 -25.9803 0.0000 0.0000 0.0000 31.8533 19.1769 -34.2955 -5.6314 -14.0614 43.4837 -1.3029 -5.8127 -24.3709 -0.6717 -5.2408 14.5967 13.4754 -0.6395 -15.6770 4.2117 -3.2947 -7.9932 -3.5461 -2.2038 -0.3394 2.3567 4.0864 -19.7695 -3.5531 5.8622 31.6616 -0.8478 2.0796 14.3769 0.0000 -0.0000 0.0000 -83.9349 32.0461 4.9486 88.8259 -59.9948 -58.9832 -0.0000 0.0000 -22.5970 42.8910 -16.1875 -14.5193 -7.1250 0.0000 -0.0000 9.7897 8.6189 -8.3380 0.0000 -0.0000 0.0000 74.6103 -28.7852 15.6301 -142.0138 46.8305 -103.0445 0.0000 0.0000 26.9860 -50.1179 -6.4944 7.7087 7.1250 -0.0000 -0.0000 -20.2480 -39.2228 -3.0288
8.1775 14.7477 22.0082 -382.6140 -75.0182 399.9380 0.0000 0.0000 0.0000 -12.9870 -9.5364 -53.6599 13.0772 18.8098 69.3650 0.8077 -0.4558 -16.8375 2.0981 -9.0674 -26.0065 0.0000 0.0000 0.0000 31.9108 19.2350 -34.3298 -5.6654 -14.0961 43.6236 -1.3123 -5.7318 -24.3958 -0.6720 -5.2422 14.6007 13.5315 -0.6294 -15.6611 4.2201 -3.2890 -7.9684 -3.5671 -2.2004 -0.3238 2.4512 4.1236 -19.6907 -3.5983 5.8979 31.5223 -0.8757 2.1057 14.3043 0.0000 -0.0000 0.0000 -83.8778 31.8127 6.3759 85.2703 -59.9153 -55.9051 -0.0000 0.0000 -22.9614 42.9189 -16.4781 -14.7757 -7.1250 0.0000 -0.0000 9.7478 8.2424 -8.3750 0.0000 -0.0000 0.0000 74.6314 -28.8653 17.1577 -140.7661 47.6094 -102.1287 0.0000 0.0000 27.2269 -50.2074 -6.2329 7.4263 7.1250 -0.0000 -0.0000 -20.2436 -38.8548 -3.2215
8.1796 14.7388 22.0104 -383.0500 -75.0751 400.3390 0.0000 0.0000 0.0000 -13.0192 -10.0609 -53.1078 12.8829 18.7395 68.7615 0.8611 -0.7012 -17.3154 2.0870 -9.0451 -25.9364 0.0000 0.0000 0.0000 31.9826 19.2935 -34.3476 -5.6945 -14.1256 43.7431 -1.3187 -5.6725 -24.4099 -0.6690 -5.2307 14.5678 13.6065 -0.6273 -15.6322 4.2245 -3.2940 -7.9397 -3.6034 -2.2030 -0.3145 2.5630 4.1659 -19.6130 -3.6447 5.9354 31.3749 -0.9066 2.1348 14.2295 0.0000 -0.0000 0.0000 -83.8227 31.5619 7.7283 81.7728 -59.7427 -52.8812 -0.0000 0.0000 -23.2036 42.9136 -16.7938 -15.0357 -7.1250 0.0000 -0.0000 9.6798 7.8443 -8.3919 0.0000 -0.0000 0.0000 74.6205 -28.9091 18.6563 -139.4345 48.4014 -101.1390 0.0000 0.0000 27.4097 -50.4121 -6.0836 7.3033 7.1250 -0.0000 -0.0000 -20.3755 -38.6616 -3.3471
8.1825 14.7303 22.0126 -383.4940 -75.1131 400.7460 0.0000 0.0000 0.0000 -13.0251 -10.6092 -52.5735 12.7041 18.6727 68.2038 0.9152 -0.9820 -17.7767 2.0686 -9.0076 -25.8192 0.0000 0.0000 0.0000 32.0653 19.3429 -34.3593 -5.7193 -14.1507 43.8445 -1.3220 -5.6273 -24.4089 -0.6615 -5.2017 14.4846 13.7038 -0.6318 -15.6037 4.2192 -3.3106 -7.9024 -3.6639 -2.2111 -0.2999 2.6915 4.2150 -19.5518 -3.6785 5.9730 31.2272 -0.9347 2.1677 14.1586 0.0000 0.0000 0.0000 -83.7635 31.2853 9.0038 78.3332 -59.4794 -49.9139 -0.0000 0.0000 -23.2933 42.9297 -17.1347 -15.3263 -7.1250 0.0000 -0.0000 9.6194 7.4089 -8.4214 0.0000 0.0000 0.0000 74.5912 -28.9035 20.1204 -138.0062 49.2078 -100.0642 0.0000 0.0000 27.5328 -50.6544 -5.9424 7.1974 7.1250 -0.0000 -0.0000 -20.5420 -38.4833 -3.4726
8.1859 14.7223 22.0146 -383.9440 -75.1344 401.1590 0.0000 0.0000 0.0000 -13.0050 -11.1823 -52.0569 12.5380 18.6090 67.6844 0.9698 -1.2946 -18.2228 2.0432 -8.9555 -25.6561 0.0000 0.0000 0.0000 32.1570 19.3892 -34.3650 -5.7399 -14.1715 43.9288 -1.3229 -5.5961 -24.3970 -0.6499 -5.1568 14.3563 13.8059 -0.6459 -15.5744 4.2184 -3.3406 -7.8593 -3.7240 -2.2252 -0.2816 2.8165 4.2662 -19.5064 -3.7053 6.0130 31.0756 -0.9587 2.2021 14.0895 0.0000 -0.0000 0.0000 -83.7276 30.9842 10.2087 74.9741 -59.1295 -47.0252 -0.0000 0.0000 -23.2832 43.0174 -17.5054 -15.6777 -7.1250 0.0000 -0.0000 9.5964 6.9154 -8.4942 0.0000 -0.0000 0.0000 74.5165 -28.8450 21.5472 -136.4754 50.0249 -98.8981 0.0000 0.0000 27.5871 -50.9143 -5.7953 7.0863 7.1250 -0.0000 -0.0000 -20.7204 -38.2969 -3.6067
8.1897 14.7152 22.0169 -384.3850 -75.1471 401.5730 0.0000 0.0000 0.0000 -12.9662 -11.7842 -51.5614 12.3816 18.5474 67.1935 1.0243 -1.6236 -18.6544 2.0121 -8.8913 -25.4560 0.0000 0.0000 0.0000 32.2491 19.4151 -34.3818 -5.7567 -14.1883 43.9972 -1.3236 -5.5470 -24.3735 -0.6384 -5.1119 14.2279 13.9079 -0.6665 -15.5578 4.2235 -3.3822 -7.8091 -3.7804 -2.2438 -0.2505 2.9246 4.3183 -19.4840 -3.7180 6.0557 30.9207 -0.9731 2.2376 14.0232 -0.0000 -0.0000 0.0000 -83.7132 30.6554 11.3443 71.7054 -58.6968 -44.2257 -0.0000 0.0000 -23.1842 43.1731 -17.8796 -16.0684 -7.1250 0.0000 -0.0000 9.6134 6.3967 -8.6075 -0.0000 -0.0000 0.0000 74.3987 -28.7272 22.9286 -134.8321 50.8505 -97.6312 0.0000 0.0000 27.5937 -51.1544 -5.6085 6.9192 7.1250 -0.0000 -0.0000 -20.8666 -38.0482 -3.7703
8.1935 14.7088 22.0194 -384.8360 -75.1531 402.0040 0.0000 0.0000 0.0000 -12.9095 -12.4084 -51.0857 12.2336 18.4876 66.7272 1.0775 -1.9638 -19.0627 1.9782 -8.8205 -25.2355 0.0000 0.0000 0.0000 32.3485 19.4050 -34.4110 -5.7696 -14.2013 44.0499 -1.3253 -5.4651 -24.3383 -0.6268 -5.0662 14.0974 14.0140 -0.6912 -15.5506 4.2305 -3.4320 -7.7544 -3.8385 -2.2656 -0.2112 3.0293 4.3715 -19.4768 -3.7221 6.0984 30.7651 -0.9832 2.2737 13.9598 0.0000 -0.0000 0.0000 -83.7107 30.3061 12.4260 68.5471 -58.1875 -41.5343 -0.0000 0.0000 -23.0247 43.3918 -18.2416 -16.4850 -7.1250 0.0000 -0.0000 9.6702 5.8730 -8.7586 0.0000 -0.0000 0.0000 74.2602 -28.5616 24.2504 -133.0733 51.6782 -96.2591 0.0000 0.0000 27.5830 -51.3592 -5.4216 6.7402 7.1250 -0.0000 -0.0000 -20.9805 -37.7936 -3.9326
8.1970 14.7032 22.0219 -385.2970 -75.1579 402.4540 0.0000 0.0000 0.0000 -12.8354 -13.0517 -50.6294 12.0924 18.4294 66.2815 1.1295 -2.3222 -19.4497 1.9358 -8.7310 -24.9575 0.0000 0.0000 0.0000 32.4521 19.3594 -34.4546 -5.7791 -14.2108 44.0886 -1.3294 -5.3379 -24.2950 -0.6185 -5.0331 14.0029 14.1191 -0.7164 -15.5556 4.2402 -3.4849 -7.6966 -3.8944 -2.2882 -0.1623 3.1247 4.4230 -19.4813 -3.7180 6.1392 30.6090 -0.9886 2.3090 13.8982 0.0000 -0.0000 0.0000 -83.7190 29.9408 13.4590 65.5269 -57.6113 -38.9756 -0.0000 0.0000 -22.8304 43.6394 -18.5565 -16.8816 -7.1250 0.0000 -0.0000 9.7530 5.3980 -8.9255 0.0000 -0.0000 0.0000 74.1121 -28.3561 25.5076 -131.1962 52.5015 -94.7780 0.0000 0.0000 27.5875 -51.5319 -5.3013 6.6329 7.1250 -0.0000 -0.0000 -21.0881 -37.6329 -4.0436
8.2003 14.6978 22.0243 -385.7750 -75.1590 402.9230 0.0000 0.0000 0.0000 -12.7450 -13.7048 -50.1930 11.9586 18.3731 65.8576 1.1795 -2.7144 -19.8078 1.8788 -8.6089 -24.5794 0.0000 0.0000 0.0000 32.5546 19.3563 -34.4806 -5.7860 -14.2177 44.1167 -1.3340 -5.2358 -24.2717 -0.6180 -5.0311 13.9974 14.2262 -0.7417 -15.5644 4.2495 -3.5394 -7.6359 -3.9523 -2.3111 -0.1089 3.2259 4.4755 -19.4952 -3.7139 6.1793 30.4533 -0.9951 2.3444 13.8393 0.0000 0.0000 0.0000 -83.7386 29.5631 14.4394 62.6531 -56.9764 -36.5573 -0.0000 0.0000 -22.6033 43.8822 -18.8096 -17.2278 -7.1250 0.0000 -0.0000 9.8450 5.0004 -9.0875 0.0000 0.0000 0.0000 73.9724 -28.1213 26.6917 -129.2026 53.3121 -93.1877 0.0000 0.0000 27.6168 -51.6565 -5.2145 6.5546 7.1250 -0.0000 -0.0000 -21.1653 -37.5165 -4.1245
8.2032 14.6924 22.0265 -386.2870 -75.1597 403.4310 0.0000 0.0000 0.0000 -12.6365 -14.3596 -49.7802 11.8314 18.3185 65.4535 1.2271 -3.1398 -20.1366 1.8169 -8.4738 -24.1628 0.0000 0.0000 0.0000 32.6570 19.4026 -34.4930 -5.7918 -14.2235 44.1401 -1.3378 -5.1647 -24.2603 -0.6204 -5.0405 14.0242 14.3388 -0.7590 -15.5822 4.2540 -3.5860 -7.5724 -4.0178 -2.3296 -0.0473 3.3201 4.5196 -19.5168 -3.6945 6.2044 30.2976 -0.9967 2.3746 13.7807 -0.0000 0.0000 0.0000 -83.7586 29.1739 15.3735 59.9435 -56.2949 -34.2941 -0.0000 0.0000 -22.3598 44.0732 -18.9903 -17.4869 -7.1250 0.0000 -0.0000 9.9207 4.7097 -9.2147 -0.0000 0.0000 0.0000 73.8584 -27.8679 27.7918 -127.0972 54.1012 -91.4906 0.0000 0.0000 27.6653 -51.8328 -5.2646 6.6584 7.1250 -0.0000 -0.0000 -21.3345 -37.6095 -4.1095
8.2062 14.6868 22.0280 -386.7950 -75.1628 403.9400 0.0000 0.0000 0.0000 -12.5224 -15.0122 -49.3906 11.7095 18.2651 65.0649 1.2714 -3.6050 -20.4301 1.7523 -8.3298 -23.7204 0.0000 0.0000 0.0000 32.7451 19.5273 -34.4889 -5.7985 -14.2302 44.1676 -1.3403 -5.1493 -24.2708 -0.6270 -5.0668 14.0993 14.4502 -0.7673 -15.6025 4.2428 -3.6205 -7.5080 -4.0982 -2.3417 0.0176 3.4186 4.5531 -19.5461 -3.6597 6.2071 30.1416 -0.9969 2.3977 13.7224 -0.0000 0.0000 0.0000 -83.7632 28.7748 16.2694 57.3975 -55.5756 -32.1848 -0.0000 0.0000 -22.1288 44.2059 -19.1166 -17.6686 -7.1250 0.0000 -0.0000 9.9726 4.5061 -9.3031 -0.0000 0.0000 0.0000 73.7886 -27.6096 28.8057 -124.8894 54.8596 -89.6936 0.0000 0.0000 27.7161 -52.0482 -5.4178 6.9026 7.1250 -0.0000 -0.0000 -21.5751 -37.8619 -4.0189
8.2094 14.6810 22.0290 -387.2750 -75.1785 404.4270 0.0000 0.0000 0.0000 -12.4183 -15.6556 -49.0173 11.5898 18.2118 64.6827 1.3118 -4.0946 -20.6909 1.6934 -8.1959 -23.3108 0.0000 0.0000 0.0000 32.8106 19.7066 -34.4809 -5.8082 -14.2399 44.2071 -1.3430 -5.1581 -24.2968 -0.6382 -5.1112 14.2259 14.5515 -0.7640 -15.6273 4.2119 -3.6384 -7.4407 -4.1923 -2.3446 0.0902 3.5135 4.5722 -19.5877 -3.6041 6.1831 29.9855 -0.9928 2.4116 13.6646 0.0000 -0.0000 0.0000 -83.7505 28.3616 17.1290 55.0070 -54.8256 -30.2217 -0.0000 0.0000 -21.9269 44.2559 -19.1974 -17.7650 -7.1250 0.0000 -0.0000 9.9846 4.3875 -9.3372 0.0000 -0.0000 0.0000 73.7701 -27.3473 29.7240 -122.5869 55.5802 -87.8023 0.0000 0.0000 27.7514 -52.2766 -5.6191 7.2141 7.1250 -0.0000 -0.0000 -21.8467 -38.1895 -3.8880
8.2125 14.6753 22.0300 -387.6910 -75.2218 404.8590 0.0000 0.0000 0.0000 -12.3504 -16.2821 -48.6490 11.4693 18.1572 64.2963 1.3477 -4.5828 -20.9190 1.6466 -8.0875 -22.9802 0.0000 0.0000 0.0000 32.8426 19.8873 -34.4917 -5.8228 -14.2544 44.2662 -1.3479 -5.1470 -24.3290 -0.6512 -5.1620 14.3712 14.6318 -0.7480 -15.6532 4.1567 -3.6354 -7.3741 -4.2985 -2.3365 0.1661 3.6026 4.5761 -19.6385 -3.5281 6.1321 29.8307 -0.9843 2.4157 13.6072 0.0000 -0.0000 0.0000 -83.7163 27.9371 17.9564 52.7544 -54.0477 -28.3892 -0.0000 0.0000 -21.7756 44.2304 -19.2621 -17.8041 -7.1250 0.0000 -0.0000 9.9550 4.3145 -9.3224 0.0000 -0.0000 0.0000 73.7967 -27.0893 30.5537 -120.1946 56.2579 -85.8207 0.0000 0.0000 27.7431 -52.5068 -5.7935 7.4962 7.1250 -0.0000 -0.0000 -22.1127 -38.4789 -3.7732
8.2157 14.6700 22.0311 -388.0440 -75.2975 405.2340 0.0000 0.0000 0.0000 -12.3239 -16.8899 -48.2767 11.3455 18.1000 63.8986 1.3785 -5.0271 -21.1162 1.6186 -8.0218 -22.7802 0.0000 0.0000 0.0000 32.8406 20.0371 -34.5306 -5.8425 -14.2739 44.3462 -1.3561 -5.0865 -24.3584 -0.6641 -5.2116 14.5132 14.6823 -0.7241 -15.6734 4.0890 -3.6156 -7.3114 -4.3993 -2.3196 0.2396 3.6685 4.5674 -19.6973 -3.4359 6.0655 29.6782 -0.9683 2.4123 13.5504 -0.0000 0.0000 0.0000 -83.6866 27.5038 18.7374 50.6225 -53.2435 -26.6720 -0.0000 0.0000 -21.6843 44.1344 -19.3275 -17.8026 -7.1250 0.0000 -0.0000 9.8828 4.2647 -9.2620 -0.0000 0.0000 0.0000 73.8371 -26.8361 31.3116 -117.7208 56.8873 -83.7560 0.0000 0.0000 27.6778 -52.7032 -5.9157 7.7058 7.1250 -0.0000 -0.0000 -22.3315 -38.6872 -3.6929
8.2189 14.6653 22.0327 -388.3240 -75.4094 405.5370 0.0000 0.0000 0.0000 -12.3424 -17.4807 -47.8901 11.2175 18.0399 63.4858 1.4035 -5.3995 -21.2779 1.6061 -7.9924 -22.6910 0.0000 0.0000 0.0000 32.8017 20.1352 -34.5989 -5.8668 -14.2980 44.4446 -1.3682 -4.9654 -24.3836 -0.6748 -5.2527 14.6308 14.6973 -0.6968 -15.6820 4.0127 -3.5830 -7.2528 -4.4878 -2.2960 0.3070 3.7150 4.5513 -19.7624 -3.3367 5.9925 29.5274 -0.9474 2.4046 13.4947 -0.0000 0.0000 0.0000 -83.6713 27.0605 19.4657 48.5902 -52.4108 -25.0526 -0.0000 0.0000 -21.6578 44.0000 -19.4115 -17.7938 -7.1250 0.0000 -0.0000 9.7835 4.2044 -9.1772 -0.0000 0.0000 0.0000 73.8803 -26.5848 31.9975 -115.1674 57.4659 -81.6102 0.0000 0.0000 27.5725 -52.8092 -5.9218 7.7430 7.1250 -0.0000 -0.0000 -22.4273 -38.7097 -3.6975
